<svg height="512" viewBox="0 0 53 60" width="512" xmlns="http://www.w3.org/2000/svg"><g id="Page-1" fill="none" fill-rule="evenodd"><g id="010---Directional-Traffic-Arrow" fill-rule="nonzero" transform="translate(0 -1)"><g id="Icons_copy" transform="translate(1 1)"><path id="Shape" d="m50 20h-6v33c-.0015928.5516236-.4483764.9984072-1 1h-10c-.2655018.0009342-.5203988-.1041227-.7081381-.2918619-.1877392-.1877393-.2927961-.4426363-.2918619-.7081381v-33h-6c-.3708398.002689-.7118642-.2028062-.8827573-.5319337s-.1427857-.7262873.0727573-1.0280663l1.98-2.8 6.93-9.81 2.43-3.44.69-.98c.1884814-.25913406.4895695-.41244589.81-.41244589s.6215186.15331183.81.41244589l11.97 17.03c.215543.301779.2436504.6989388.0727573 1.0280663s-.5119175.5346227-.8827573.5319337z" fill="#cad9fc"/><path id="Shape" d="m47 20h-6v33c-.0015928.5516236-.4483764.9984072-1 1h-7c-.2655018.0009342-.5203988-.1041227-.7081381-.2918619-.1877392-.1877393-.2927961-.4426363-.2918619-.7081381v-33h-6c-.3708398.002689-.7118642-.2028062-.8827573-.5319337s-.1427857-.7262873.0727573-1.0280663l1.98-2.8 6.93-9.81 2.43-3.44 11.28 16.05c.215543.301779.2436504.6989388.0727573 1.0280663s-.5119175.5346227-.8827573.5319337z" fill="#e8edfc"/><path id="Shape" d="m25.81 41.56-11.97 17.03c-.1884814.2591341-.4895695.4124459-.81.4124459s-.6215186-.1533118-.81-.4124459l-.69-.98-2.43-3.44-6.93-9.81-1.98-2.8c-.215543-.301779-.2436504-.6989388-.07275728-1.0280663.17089311-.3291275.51191752-.5346227.88275728-.5319337h6v-33c.00159279-.55162365.44837635-.99840721 1-1h10c.2655018-.00093417.5203988.10412266.7081381.29186192.1877392.18773927.2927961.44263631.2918619.70813808v33h6c.3708398-.002689.7118642.2028062.8827573.5319337s.1427857.7262873-.0727573 1.0280663z" fill="#cad9fc"/><path id="Shape" d="m22.81 41.56-11.28 16.05-2.43-3.44-6.93-9.81-1.98-2.8c-.215543-.301779-.2436504-.6989388-.07275728-1.0280663.17089311-.3291275.51191752-.5346227.88275728-.5319337h6v-33c.00159279-.55162365.44837635-.99840721 1-1h7c.2655018-.00093417.5203988.10412266.7081381.29186192.1877392.18773927.2927961.44263631.2918619.70813808v33h6c.3708398-.002689.7118642.2028062.8827573.5319337s.1427857.7262873-.0727573 1.0280663z" fill="#e8edfc"/></g><g id="Icons" fill="#fff" transform="translate(1 7)"><path id="Shape" d="m10 1c.0015928-.55162365.4483764-.99840721 1-1h-3c-.55162365.00159279-.99840721.44837635-1 1v33h3z"/><path id="Shape" d="m2.17 38.36 6.93 9.81 2.43 3.44.69.98c.1884814.2591341.4895695.4124459.81.4124459s.6215186-.1533118.81-.4124459l.6894-.9808-2.4294-3.4392-6.93-9.81-1.98-2.8c-.215543-.301779-.2436504-.6989388-.07275728-1.0280663.17089311-.3291275.51191752-.5346227.88275728-.5319337h-3c-.37083976-.002689-.71186417.2028062-.88275728.5319337-.17089312.3291275-.14278572.7262873.07275728 1.0280663z"/></g><g id="Layer_2"><path id="Shape" d="m43.9971 56h-10c-1.1040441-.0012675-1.9987325-.8959559-2-2v-32h-5c-.7464906.0026834-1.4315013-.4132569-1.7734361-1.0768352-.3419347-.6635782-.2830931-1.4628177.1523361-2.0691648l12.0234-17.0205c.374468-.52260354.9771467-.83355786 1.6200583-.83587513.6429116-.00231726 1.2478162.30428455 1.6260417.82417513l11.98 17.0429c.4313537.6000298.4893198 1.3914216.15 2.0479-.3396325.6694559-1.0277245 1.0901887-1.7784 1.0874h-5v32c-.0012675 1.1040441-.8959559 1.9987325-2 2zm-11-36c.5522847 0 1 .4477153 1 1v33.0015l10-.0015v-33c0-.5522847.4477153-1 1-1h6l-11.9785-17.0146-12.0157 17.0322z" fill="#428dff"/><path id="Shape" d="m2.01 41.98 7.502 10.617 4.528 6.414-1.634 1.153-4.528-6.413-7.501-10.616z" fill="#fff"/><g fill="#428dff"><path id="Shape" d="m4.0793 46.64c.4495497-.3196739.55675019-.9422855.24-1.3939l-2.3093-3.2661-1.6334 1.1549 2.3091 3.2658c.31965557.4494768.94231355.5563957 1.3936.2393z"/><path id="Shape" d="m12.4061 60.1642 1.6339-1.1534-5.1051-7.23c-.20504419-.2945835-.55223526-.456686-.90973024-.4247504-.35749498.0319357-.67045619.2530106-.82003917.5792735-.14958297.3262629-.11284254.7076669.09626941.9993769z"/><path id="Shape" d="m6.627 48.5135c-.1559893-.2138748-.386811-.3611509-.6465-.4125l-.1918-.0116c-.0674688.0011291-.13448852.0112174-.1993.03-.06295465.0092638-.1241669.0279039-.1816.0553-.06035852.02894-.1186619.0619841-.1745.0989-.21411524.1558073-.36145368.3867625-.4125.6466-.06339881.3309704.04667667.6713927.29185105.9025861.24517438.2311933.5914664.3211143.91814895.2384139.1279232-.0274583.24919336-.0798196.3569-.1541.21878513-.1513456.36749307-.384338.41263686-.6465105.0451438-.2621726-.01707186-.5314842-.17263686-.7472895z"/><path id="Shape" d="m14.0332 61c-.6402169-.0009699-1.2416133-.3071096-1.6191-.8242-.3211292-.4465958-.2212759-1.0687014.2234865-1.3923651.4447625-.3236636 1.0674259-.2273496 1.3936135.2155651l.002.003 11.9619-17.02-5.9922.0152c-.5522847 0-1-.4477153-1-1v-32.9972h-10v32.9976c0 .5522847-.44771525 1-1 1h-6c.15554794.2124851.21945678.4784426.17743617.7384028-.04202062.2599603-.18646557.492239-.40103617.6448972-.45121256.3195065-1.07589919.2135357-1.3965-.2369-.43578106-.6061437-.49497501-1.4054212-.15323965-2.0691472.34173537-.663726 1.02670865-1.079851 1.77323965-1.0772528h5v-31.9976c.00126747-1.10404407.89595593-1.99873253 2-2h10c1.1040441.00126747 1.9987325.89595593 2 2v31.9976h5c.7464458-.0028423 1.431486.4129858 1.7734434 1.0765025.3419574.6635168.2831106 1.4627227-.1523434 2.0689975l-11.9629 17.02c-.3768716.5234841-.9817707.8346717-1.6268.8369z"/></g></g></g></g></svg>